<?xml version="1.0" encoding="UTF-8"?>
<svg id="Layer_1" data-name="Layer 1" xmlns="http://www.w3.org/2000/svg" version="1.1" viewBox="0 0 595.3 841.9">
  <defs>
    <style>
      .cls-1 {
        fill: #231f20;
        stroke-width: 0px;
      }
    </style>
  </defs>
  <path class="cls-1" d="M576.8,371.9c-2-10.3-5.1-20.3-9.1-30-8-19.3-19.8-37-34.6-51.7-14.7-14.7-32.4-26.6-51.7-34.6-9.7-4-19.7-7-30-9.1-10.2-2-20.7-3-31.1-3.1-10.4,0-20.8,1-31.1,3.1-10.2,2-20.3,5.1-30,9.1-19.3,8-37,19.8-51.7,34.6-3.5,3.5-6.8,7.2-10,11-3.2-3.8-6.5-7.5-10-11-14.7-14.7-32.4-26.6-51.7-34.6-9.7-4-19.7-7-30-9.1-10.2-2-20.7-3-31.1-3.1-10.4,0-20.8,1-31.1,3.1-10.2,2-20.3,5.1-30,9.1-19.3,8-37,19.8-51.7,34.6-14.7,14.7-26.6,32.4-34.6,51.7-4,9.7-7.1,19.7-9.1,30-2,10.2-3,20.7-3,31.1,0,10.4,1,20.8,3,31.1,2,10.3,5.1,20.3,9.1,30,8,19.3,19.8,37,34.6,51.7,14.7,14.7,32.4,26.6,51.7,34.6,9.7,4,19.7,7,30,9.1,10.3,2,20.7,3,31.1,3,10.4,0,20.8-1,31.1-3,10.3-2,20.3-5.1,30-9.1,19.3-8,37-19.8,51.7-34.6,3.5-3.5,6.8-7.2,10-11,3.2,3.8,6.5,7.5,10,11,14.7,14.7,32.4,26.6,51.7,34.6,9.7,4,19.7,7,30,9.1,10.3,2,20.7,3,31.1,3,10.4,0,20.8-1,31.1-3,10.3-2,20.3-5.1,30-9.1,19.3-8,37-19.8,51.7-34.6,14.7-14.7,26.6-32.4,34.6-51.7,4-9.7,7.1-19.7,9.1-30,2-10.3,3-20.7,3.1-31.1,0-10.4-1-20.8-3.1-31.1ZM281.9,510c-14,14-30.7,25.2-49.1,32.8-9.2,3.8-18.7,6.7-28.4,8.6-9.7,1.9-19.6,2.9-29.5,2.9-9.9,0-19.8-1-29.5-2.9-9.7-1.9-19.3-4.8-28.4-8.6-18.3-7.6-35.1-18.8-49.1-32.8-14-14-25.2-30.7-32.8-49.1-3.8-9.2-6.7-18.7-8.6-28.4-1.9-9.7-2.9-19.6-2.9-29.5,0-9.9,1-19.8,2.9-29.5,1.9-9.7,4.8-19.3,8.6-28.4,7.6-18.3,18.8-35.1,32.8-49.1,14-14,30.7-25.2,49.1-32.8,9.2-3.8,18.7-6.7,28.4-8.6,9.7-1.9,19.6-2.9,29.5-2.9,9.9,0,19.8,1,29.5,2.9,9.7,1.9,19.3,4.8,28.4,8.6,18.3,7.6,35.1,18.8,49.1,32.8,3.7,3.7,7.3,7.7,10.6,11.8,1.8,2.2,3.5,4.5,5.2,6.8,1.7,2.4,3.3,4.8,4.9,7.2,1.6,2.5,3.2,5.1,4.6,7.8,1.5,2.8,3,5.6,4.3,8.4,1.1,2.3,2.2,4.7,3.2,7.1.3.7.6,1.5.9,2.2,1.4,3.5,2.7,7.1,3.8,10.8,1.4,4.5,2.6,9,3.5,13.6h0c.1.6.2,1.2.4,1.8,1.9,9.7,2.9,19.6,2.9,29.5,0,10.5,1.7,20.9,5.2,30.8.6,1.8,1.3,3.5,2,5.3,4.7,11.4,11.7,21.8,20.4,30.6,8.7,8.7,19.2,15.7,30.6,20.4,11.4,4.7,23.6,7.1,36.1,7.2,12.4,0,24.7-2.4,36.1-7.2,11.4-4.7,21.8-11.7,30.6-20.4,8.7-8.7,15.7-19.2,20.4-30.6,4.7-11.4,7.1-23.6,7.2-36.1,0-12.4-2.4-24.7-7.2-36.1-4.7-11.4-11.7-21.8-20.4-30.6-8.7-8.7-19.2-15.7-30.6-20.4-11.4-4.7-23.6-7.1-36.1-7.2-12.4,0-24.7,2.4-36.1,7.2-11.4,4.7-21.8,11.7-30.6,20.4-8.7,8.7-15.7,19.2-20.4,30.6-.7,1.7-1.4,3.5-2,5.3,0,0,0-.2,0-.3-.9-4.4-1.9-8.8-3.2-13.2,5-10.4,11.8-20,19.9-28.1,9.5-9.5,20.9-17.1,33.2-22.2,12.4-5.1,25.7-7.8,39.2-7.8,13.5,0,26.8,2.6,39.2,7.8,12.4,5.1,23.7,12.7,33.2,22.2,9.5,9.5,17.1,20.8,22.2,33.2,5.1,12.4,7.8,25.7,7.8,39.2,0,13.5-2.6,26.8-7.8,39.2-5.1,12.4-12.7,23.7-22.2,33.2-9.5,9.5-20.8,17.1-33.2,22.2-12.4,5.1-25.7,7.8-39.2,7.8-13.5,0-26.8-2.6-39.2-7.8-12.4-5.1-23.7-12.7-33.2-22.2-8.2-8.2-14.9-17.7-19.9-28.1-.2-.4-.4-.9-.6-1.3-.2-.3-.3-.7-.4-1-.4-.9-.8-1.8-1.2-2.8-.6-1.5-1.2-3.1-1.8-4.7-.1-.4-.3-.8-.4-1.1,0,0,0,0,0,0-.1-.4-.3-.8-.4-1.2,0-.3-.2-.5-.3-.8h0c-3.2-10.1-4.9-20.7-4.9-31.3,0-10.6-1.2-21.3-3.5-31.6-1-4.6-2.3-9.2-3.8-13.7-1.1-3.2-2.3-6.4-3.5-9.5-.2-.4-.3-.8-.5-1.3-1.3-3.1-2.8-6.2-4.3-9.3-1.4-2.8-3-5.6-4.6-8.3-1.5-2.6-3.2-5.1-4.9-7.6-1.6-2.4-3.4-4.7-5.2-7-3.6-4.6-7.4-8.9-11.5-13-13.2-13.2-29.1-23.9-46.4-31-17.3-7.2-36.1-10.9-54.8-10.9s-37.5,3.7-54.8,10.9c-17.3,7.2-33.2,17.8-46.4,31-13.2,13.2-23.9,29.1-31,46.4-7.2,17.3-10.9,36.1-10.9,54.8s3.7,37.5,10.9,54.8c7.2,17.3,17.8,33.2,31,46.4,13.2,13.2,29.1,23.9,46.4,31,17.3,7.2,36.1,10.9,54.8,10.9s37.5-3.7,54.8-10.9c17.3-7.2,33.2-17.8,46.4-31,4.1-4.1,7.9-8.4,11.5-13,1.6,2.4,3.2,4.7,4.9,6.9-3.3,4.1-6.9,8.1-10.6,11.8ZM289.2,434.9h0c-2.5-10.4-3.8-21.2-3.8-31.9,0-10.7-1.6-21.4-4.6-31.7h0c-1.1-3.6-2.3-7.2-3.8-10.6-.4-.9-.7-1.7-1.1-2.6-1.5-3.5-3.3-6.9-5.2-10.2-4.9-8.4-10.8-16.2-17.7-23.1-10.2-10.2-22.5-18.4-35.9-24-13.4-5.5-27.8-8.4-42.3-8.4-14.5,0-28.9,2.9-42.3,8.4-13.4,5.5-25.6,13.7-35.9,24-10.2,10.2-18.5,22.5-24,35.9-5.5,13.4-8.4,27.8-8.4,42.3,0,14.5,2.8,28.9,8.4,42.3,5.5,13.4,13.7,25.6,24,35.9,10.2,10.2,22.5,18.4,35.9,24,13.4,5.5,27.8,8.4,42.3,8.4,14.5,0,28.9-2.8,42.3-8.4,13.4-5.5,25.6-13.7,35.9-24,6.9-6.9,12.9-14.7,17.7-23.1.7,2,1.5,4,2.3,6,.5,1.1,1,2.3,1.5,3.4-4.5,7-9.8,13.6-15.7,19.5-11,11-24.2,19.8-38.5,25.7-14.3,6-29.9,9-45.4,9-15.6,0-31.1-3.1-45.4-9-14.4-5.9-27.5-14.8-38.5-25.7-11-11-19.8-24.1-25.7-38.5-6-14.3-9-29.9-9-45.4,0-15.5,3.1-31.1,9-45.4,5.9-14.4,14.8-27.5,25.7-38.5,11-11,24.1-19.8,38.5-25.7,14.3-6,29.9-9,45.4-9,15.5,0,31.1,3.1,45.4,9,14.4,5.9,27.5,14.8,38.5,25.7,5.9,5.9,11.2,12.5,15.7,19.5,1.8,2.8,3.6,5.8,5.2,8.8,1.8,3.3,3.4,6.8,4.8,10.3,0,0,0,0,0,.1,1.8,4.4,3.4,8.9,4.6,13.4,2.9,10.4,4.3,21.1,4.3,31.9,0,10.8,1.4,21.5,4.1,31.9h0c1.2,4.6,2.6,9.1,4.3,13.6h0c.4,1,.8,2,1.2,3,1.1,2.5,2.2,5,3.4,7.5,1.5,3.1,3.1,6.1,4.9,9,1.6,2.7,3.3,5.4,5.2,7.9,4.2,6,8.9,11.6,14.1,16.7,11.7,11.7,25.8,21.2,41.1,27.5,15.3,6.4,32,9.6,48.6,9.6,16.6,0,33.2-3.3,48.5-9.6,15.3-6.4,29.4-15.8,41.1-27.5,11.7-11.7,21.2-25.8,27.5-41.1,6.4-15.3,9.6-32,9.6-48.6,0-16.6-3.3-33.2-9.6-48.5-6.4-15.3-15.8-29.4-27.5-41.1-11.7-11.7-25.8-21.2-41.1-27.5-15.3-6.4-32-9.6-48.5-9.6-16.6,0-33.2,3.3-48.6,9.6-15.3,6.4-29.4,15.8-41.1,27.5-5.2,5.2-9.9,10.8-14.1,16.7-1.4-2.7-2.8-5.3-4.3-7.9,3.9-5.2,8.1-10,12.6-14.6,12.5-12.5,27.4-22.5,43.8-29.3,16.3-6.8,34-10.3,51.7-10.3,17.6,0,35.3,3.5,51.7,10.3,16.3,6.8,31.3,16.8,43.8,29.3,12.5,12.5,22.5,27.4,29.3,43.8,6.8,16.3,10.3,34,10.3,51.7,0,17.6-3.5,35.3-10.3,51.7-6.8,16.3-16.8,31.3-29.3,43.8-12.5,12.5-27.4,22.5-43.8,29.3-16.3,6.8-34,10.3-51.7,10.3s-35.3-3.5-51.7-10.3c-16.3-6.8-31.3-16.8-43.8-29.3-4.6-4.6-8.8-9.4-12.6-14.6-1.8-2.4-3.5-4.9-5.2-7.4-1.7-2.7-3.4-5.4-4.9-8.1-1.7-3-3.2-6-4.6-9.2-.7-1.5-1.3-3-2-4.5-.8-2-1.6-4.1-2.4-6.2h0c-1.6-4.5-3-9-4.1-13.6ZM306.1,371.1c2.5,10.4,3.8,21.2,3.8,31.9,0,10.7,1.6,21.4,4.6,31.7h0c1.1,3.6,2.3,7.2,3.8,10.7.4.9.7,1.7,1.1,2.6,1.5,3.5,3.3,6.9,5.2,10.2,4.9,8.4,10.8,16.2,17.7,23.1,10.2,10.2,22.5,18.4,35.9,24,13.4,5.5,27.8,8.4,42.3,8.4,14.5,0,28.9-2.8,42.3-8.4,13.4-5.5,25.6-13.7,35.9-24,10.2-10.2,18.4-22.5,24-35.9,5.5-13.4,8.4-27.8,8.4-42.3,0-14.5-2.8-28.9-8.4-42.3-5.5-13.4-13.7-25.6-24-35.9-10.2-10.2-22.5-18.4-35.9-24-13.4-5.5-27.8-8.4-42.3-8.4-14.5,0-28.9,2.9-42.3,8.4-13.4,5.5-25.6,13.7-35.9,24-6.9,6.9-12.9,14.7-17.7,23.1-.7-2-1.5-4-2.3-6-.5-1.1-1-2.3-1.5-3.4,4.5-7,9.8-13.6,15.7-19.5,11-11,24.1-19.8,38.5-25.7,14.3-6,29.9-9,45.4-9,15.5,0,31.1,3.1,45.4,9,14.4,5.9,27.5,14.8,38.5,25.7,11,11,19.8,24.2,25.7,38.5,6,14.4,9,29.9,9,45.4,0,15.6-3.1,31.1-9,45.4-5.9,14.4-14.8,27.5-25.7,38.5-11,11-24.2,19.8-38.5,25.7-14.3,6-29.9,9-45.4,9-15.6,0-31.1-3.1-45.4-9-14.4-5.9-27.5-14.8-38.5-25.7-5.9-5.9-11.2-12.5-15.7-19.5-1.9-2.8-3.6-5.8-5.2-8.8-1.8-3.3-3.4-6.8-4.8-10.3,0,0,0,0,0-.1-1.8-4.4-3.4-8.9-4.6-13.4h0c-2.9-10.4-4.3-21.1-4.3-31.9,0-10.8-1.4-21.5-4.1-31.9h0c-1.2-4.6-2.6-9.1-4.4-13.6h0c-.4-1-.8-2-1.2-3-1.1-2.5-2.2-5-3.4-7.5-1.5-3.1-3.1-6.1-4.9-9-1.6-2.7-3.3-5.4-5.2-7.9-4.2-6-8.9-11.6-14.1-16.7-11.7-11.7-25.8-21.2-41.1-27.5-15.3-6.4-32-9.6-48.5-9.6-16.6,0-33.2,3.3-48.6,9.6-15.3,6.4-29.4,15.8-41.1,27.5-11.7,11.7-21.2,25.8-27.5,41.1-6.4,15.3-9.6,32-9.6,48.5,0,16.6,3.3,33.2,9.6,48.6,6.4,15.3,15.8,29.4,27.5,41.1,11.7,11.7,25.8,21.2,41.1,27.5,15.3,6.4,32,9.6,48.6,9.6,16.6,0,33.2-3.3,48.5-9.6,15.3-6.4,29.4-15.8,41.1-27.5,5.2-5.2,9.9-10.8,14.1-16.7,1.4,2.7,2.8,5.3,4.3,7.9-3.9,5.2-8.1,10-12.6,14.6-12.5,12.5-27.4,22.5-43.8,29.3-16.3,6.8-34,10.3-51.7,10.3s-35.3-3.5-51.7-10.3c-16.3-6.8-31.3-16.8-43.8-29.3-12.5-12.5-22.5-27.4-29.3-43.8-6.8-16.3-10.3-34-10.3-51.7,0-17.6,3.5-35.3,10.3-51.7,6.8-16.3,16.8-31.3,29.3-43.8,12.5-12.5,27.4-22.5,43.8-29.3,16.3-6.8,34-10.3,51.7-10.3,17.6,0,35.3,3.5,51.7,10.3,16.3,6.8,31.3,16.8,43.8,29.3,4.5,4.6,8.8,9.4,12.6,14.6,1.8,2.4,3.5,4.9,5.2,7.4,1.7,2.7,3.4,5.4,4.9,8.1,1.7,3,3.2,6,4.6,9.2.7,1.5,1.3,3,2,4.5.8,2,1.6,4.1,2.4,6.2h0c1.6,4.5,3,9,4.1,13.6ZM334.3,403c0-11.4,2.2-22.5,6.5-32.9,4.3-10.4,10.7-19.9,18.7-27.9,8-8,17.6-14.4,27.9-18.7,10.4-4.3,21.6-6.5,32.9-6.5,11.4,0,22.5,2.2,32.9,6.5,10.4,4.3,19.9,10.7,27.9,18.7,8,8,14.4,17.6,18.7,27.9,4.3,10.4,6.5,21.6,6.5,32.9,0,11.4-2.2,22.5-6.5,32.9-4.3,10.4-10.7,19.9-18.7,27.9-8,8-17.6,14.4-27.9,18.7-10.4,4.3-21.6,6.5-32.9,6.5-11.4,0-22.5-2.2-32.9-6.5-10.4-4.3-19.9-10.7-27.9-18.7-8-8-14.4-17.6-18.7-27.9-4.3-10.4-6.5-21.6-6.5-32.9ZM568.8,432.5c-1.9,9.7-4.8,19.3-8.6,28.4-7.6,18.3-18.8,35.1-32.8,49.1-14,14-30.7,25.2-49.1,32.8-9.2,3.8-18.7,6.7-28.4,8.6-9.7,1.9-19.6,2.9-29.5,2.9-9.9,0-19.8-1-29.5-2.9-9.7-1.9-19.3-4.8-28.4-8.6-18.3-7.6-35.1-18.8-49.1-32.8-3.7-3.7-7.3-7.7-10.6-11.8-1.8-2.2-3.5-4.5-5.2-6.8-1.7-2.4-3.3-4.8-4.9-7.2-1.6-2.5-3.2-5.1-4.6-7.8-1.5-2.8-3-5.6-4.3-8.4-1.1-2.3-2.2-4.7-3.2-7.1-.3-.7-.6-1.5-.9-2.2h0c-1.4-3.6-2.7-7.2-3.8-10.8-1.4-4.5-2.6-9-3.5-13.6h0c-.1-.6-.3-1.2-.4-1.8-1.9-9.7-2.9-19.6-2.9-29.5,0-10.5-1.8-20.9-5.2-30.8h0c-.6-1.8-1.3-3.5-2-5.3-4.7-11.4-11.7-21.8-20.4-30.6-8.7-8.7-19.2-15.7-30.6-20.4-11.4-4.7-23.6-7.1-36.1-7.2-12.4,0-24.7,2.4-36.1,7.2-11.4,4.7-21.8,11.7-30.6,20.4-8.7,8.7-15.7,19.2-20.4,30.6-4.7,11.4-7.1,23.6-7.2,36.1,0,12.4,2.4,24.7,7.2,36.1,4.7,11.4,11.7,21.8,20.4,30.6,8.7,8.7,19.2,15.7,30.6,20.4,11.4,4.7,23.6,7.1,36.1,7.2,12.4,0,24.7-2.4,36.1-7.2,11.4-4.7,21.8-11.7,30.6-20.4,8.7-8.7,15.7-19.2,20.4-30.6.7-1.7,1.4-3.5,2-5.3,0,0,0,.2,0,.3.9,4.4,1.9,8.8,3.2,13.2-5,10.4-11.8,20-19.9,28.1-9.5,9.5-20.8,17.1-33.2,22.2-12.4,5.1-25.7,7.8-39.2,7.8-13.5,0-26.8-2.6-39.2-7.8-12.4-5.1-23.7-12.7-33.2-22.2-9.5-9.5-17.1-20.9-22.2-33.2-5.1-12.4-7.8-25.7-7.8-39.2,0-13.5,2.6-26.8,7.8-39.2,5.1-12.4,12.7-23.7,22.2-33.2,9.5-9.5,20.9-17.1,33.2-22.2,12.4-5.1,25.7-7.8,39.2-7.8,13.5,0,26.8,2.6,39.2,7.8,12.4,5.1,23.7,12.7,33.2,22.2,8.2,8.2,15,17.7,19.9,28.1.8,1.7,1.6,3.4,2.3,5.1,1.1,2.6,2,5.2,2.9,7.9h0c3.2,10.1,4.9,20.7,4.9,31.3,0,10.6,1.2,21.3,3.5,31.7h0c1,4.6,2.3,9.2,3.8,13.6,1.1,3.2,2.3,6.4,3.5,9.5.2.4.3.8.5,1.3,1.3,3.1,2.8,6.2,4.3,9.3,1.4,2.8,3,5.6,4.6,8.3,1.5,2.6,3.2,5.1,4.9,7.6,1.6,2.4,3.4,4.7,5.2,7,3.6,4.6,7.4,8.9,11.5,13,13.2,13.2,29.1,23.9,46.4,31,17.3,7.2,36.1,10.9,54.8,10.9s37.5-3.7,54.8-10.9c17.3-7.2,33.2-17.8,46.4-31,13.2-13.2,23.9-29.1,31-46.4,7.2-17.3,10.9-36.1,10.9-54.8s-3.7-37.5-10.9-54.8c-7.2-17.3-17.8-33.2-31-46.4-13.2-13.2-29.1-23.9-46.4-31-17.3-7.2-36.1-10.9-54.8-10.9s-37.5,3.7-54.8,10.9c-17.3,7.2-33.2,17.8-46.4,31-4.1,4.1-7.9,8.4-11.5,13-1.6-2.4-3.2-4.7-4.9-6.9,3.3-4.1,6.9-8.1,10.6-11.8,14-14,30.7-25.2,49.1-32.8,9.2-3.8,18.7-6.7,28.4-8.6,9.7-1.9,19.6-2.9,29.5-2.9,9.9,0,19.8,1,29.5,2.9,9.7,1.9,19.3,4.8,28.4,8.6,18.3,7.6,35.1,18.8,49.1,32.8,14,14,25.2,30.7,32.8,49.1,3.8,9.2,6.7,18.7,8.6,28.4,1.9,9.7,2.9,19.6,2.9,29.5,0,9.9-1,19.8-2.9,29.5ZM260.9,403c0,11.4-2.2,22.5-6.5,32.9-4.3,10.4-10.7,19.9-18.7,27.9-8,8-17.6,14.4-27.9,18.7-10.4,4.3-21.6,6.5-32.9,6.5-11.4,0-22.5-2.2-32.9-6.5-10.4-4.3-19.9-10.7-27.9-18.7-8-8-14.4-17.6-18.7-27.9-4.3-10.4-6.5-21.6-6.5-32.9,0-11.4,2.2-22.5,6.5-32.9,4.3-10.4,10.7-19.9,18.7-27.9,8-8,17.6-14.4,27.9-18.7,10.4-4.3,21.6-6.5,32.9-6.5,11.4,0,22.5,2.2,32.9,6.5,10.4,4.3,19.9,10.7,27.9,18.7,8,8,14.4,17.6,18.7,27.9,4.3,10.4,6.5,21.6,6.5,32.9Z"/>
</svg>