<svg width="1037" height="868" viewBox="0 0 1037 868" fill="none" xmlns="http://www.w3.org/2000/svg">
<path d="M1526.57 349.539C1521.14 321.522 1512.71 294.32 1501.84 267.935C1480.09 215.436 1448.02 167.289 1407.79 127.303C1367.83 87.3169 1319.71 54.9471 1267.25 33.1859C1240.88 22.3053 1213.7 14.1448 1185.7 8.43248C1157.98 2.99218 1129.44 0.272015 1101.17 0C1072.9 0 1044.63 2.72017 1016.63 8.43248C988.902 13.8728 961.448 22.3053 935.081 33.1859C882.618 54.9471 834.505 87.0449 794.547 127.303C785.033 136.824 776.062 146.888 767.364 157.225C758.666 146.888 749.695 136.824 740.181 127.303C700.223 87.3169 652.11 54.9471 599.648 33.1859C573.281 22.3053 546.098 14.1448 518.1 8.43248C490.374 2.99218 461.832 0.272015 433.562 0C405.292 0 377.022 2.72017 349.024 8.43248C321.298 13.8728 293.844 22.3053 267.477 33.1859C215.014 54.9471 166.901 87.0449 126.943 127.303C86.9842 167.289 54.637 215.436 32.8909 267.935C22.0179 294.32 13.5913 321.522 8.15477 349.539C2.71826 377.285 0 405.846 0 434.136C0 462.426 2.71826 490.715 8.15477 518.733C13.5913 546.75 22.0179 573.952 32.8909 600.337C54.637 652.836 86.7124 700.983 126.943 740.969C166.901 780.955 215.014 813.325 267.477 835.086C293.844 845.967 321.026 854.127 349.024 859.84C377.022 865.28 405.292 868 433.562 868C461.832 868 490.102 865.28 518.1 859.84C546.098 854.399 573.281 845.967 599.648 835.086C652.11 813.325 700.223 781.227 740.181 740.969C749.695 731.448 758.666 721.384 767.364 711.047C776.062 721.384 785.033 731.448 794.547 740.969C834.505 780.955 882.618 813.325 935.081 835.086C961.448 845.967 988.63 854.127 1016.63 859.84C1044.63 865.28 1072.9 868 1101.17 868C1129.44 868 1157.71 865.28 1185.7 859.84C1213.7 854.399 1240.88 845.967 1267.25 835.086C1319.71 813.325 1367.83 781.227 1407.79 740.969C1447.74 700.983 1480.09 652.836 1501.84 600.337C1512.71 573.952 1521.14 546.75 1526.57 518.733C1532.01 490.715 1534.73 462.426 1535 434.136C1535 405.846 1532.28 377.557 1526.57 349.539ZM724.959 725.192C686.904 763.274 641.509 793.74 591.493 814.413C566.485 824.75 540.661 832.638 514.294 837.806C487.927 842.975 461.016 845.695 434.106 845.695C407.195 845.695 380.284 842.975 353.917 837.806C327.55 832.638 301.455 824.75 276.719 814.413C226.975 793.74 181.308 763.274 143.252 725.192C105.197 687.11 74.7521 641.683 54.0933 591.633C43.7639 566.607 35.881 540.766 30.7163 514.38C25.5516 487.995 22.8334 461.066 22.8334 434.136C22.8334 407.207 25.5516 380.277 30.7163 353.892C35.881 327.506 43.7639 301.393 54.0933 276.639C74.7521 226.861 105.197 181.162 143.252 143.08C181.308 104.998 226.703 74.5322 276.719 53.859C301.727 43.5225 327.55 35.634 353.917 30.4657C380.284 25.2974 407.195 22.5773 434.106 22.5773C461.016 22.5773 487.927 25.2974 514.294 30.4657C540.661 35.634 566.757 43.5225 591.493 53.859C641.237 74.5322 686.904 104.998 724.959 143.08C735.017 153.144 744.802 164.025 753.773 175.178C758.666 181.162 763.287 187.418 767.908 193.675C772.529 200.203 776.878 206.731 781.227 213.26C785.576 220.06 789.926 227.133 793.731 234.477C797.809 242.093 801.886 249.71 805.42 257.326C808.41 263.583 811.4 270.111 814.118 276.639C814.934 278.543 815.749 280.72 816.565 282.624C820.37 292.144 823.904 301.937 826.894 312.001C830.699 324.242 833.961 336.483 836.408 348.995C836.68 350.627 836.951 352.259 837.495 353.892C842.66 380.277 845.378 407.207 845.378 434.136C845.378 462.698 849.999 490.987 859.513 517.917C861.144 522.813 863.047 527.437 864.949 532.333C877.725 563.343 896.753 591.633 920.402 615.57C944.051 639.235 972.592 658.276 1003.58 671.061C1034.57 683.846 1067.73 690.374 1101.71 690.646C1135.42 690.646 1168.85 684.118 1199.84 671.061C1230.83 658.276 1259.1 639.235 1283.02 615.57C1306.67 591.905 1325.69 563.343 1338.47 532.333C1351.25 501.324 1357.77 468.138 1358.04 434.136C1358.04 400.406 1351.52 366.948 1338.47 335.939C1325.69 304.929 1306.67 276.639 1283.02 252.702C1259.37 229.037 1230.83 209.996 1199.84 197.211C1168.85 184.426 1135.69 177.898 1101.71 177.626C1068 177.626 1034.57 184.154 1003.58 197.211C972.592 209.996 944.323 229.037 920.402 252.702C896.753 276.367 877.725 304.929 864.949 335.939C863.047 340.563 861.144 345.459 859.513 350.355C859.513 350.355 859.513 349.811 859.513 349.539C857.067 337.571 854.348 325.602 850.815 313.633C864.406 285.344 882.89 259.23 904.908 237.197C930.731 211.356 961.719 190.683 995.154 176.81C1028.86 162.937 1065.01 155.593 1101.71 155.593C1138.41 155.593 1174.56 162.665 1208.27 176.81C1241.97 190.683 1272.69 211.356 1298.51 237.197C1324.33 263.039 1344.99 293.776 1358.86 327.506C1372.72 361.236 1380.06 397.414 1380.06 434.136C1380.06 470.858 1372.99 507.036 1358.86 540.766C1344.99 574.496 1324.33 605.233 1298.51 631.075C1272.69 656.916 1241.97 677.59 1208.27 691.462C1174.56 705.335 1138.41 712.679 1101.71 712.679C1065.01 712.679 1028.86 705.607 995.154 691.462C961.448 677.59 930.731 656.916 904.908 631.075C882.618 608.77 864.406 582.928 850.815 554.639C850.271 553.551 849.727 552.191 849.184 551.102C848.64 550.286 848.368 549.198 848.096 548.382C847.009 545.934 845.922 543.486 844.834 540.766C843.203 536.686 841.573 532.333 839.942 527.981C839.67 526.893 839.126 525.805 838.854 524.989C838.582 523.901 838.039 522.813 837.767 521.725C837.767 520.909 837.223 520.365 836.951 519.549C828.253 492.075 823.632 463.242 823.632 434.408C823.632 405.574 820.37 376.469 814.118 348.451C811.4 335.939 807.866 323.426 803.789 311.185C800.799 302.481 797.537 293.776 794.275 285.344C793.731 284.256 793.459 283.168 792.916 281.808C789.382 273.375 785.305 264.943 781.227 256.51C777.422 248.894 773.072 241.277 768.723 233.933C764.646 226.861 760.025 220.06 755.404 213.26C751.055 206.731 746.162 200.475 741.269 194.219C731.483 181.706 721.154 170.009 710.009 158.857C674.128 122.951 630.908 93.8452 583.882 74.5321C536.856 54.947 485.753 44.8825 434.921 44.8825C384.09 44.8825 332.987 54.947 285.961 74.5321C238.935 94.1172 195.715 122.951 159.834 158.857C123.953 194.763 94.8672 238.013 75.5676 285.072C55.9961 332.13 45.9385 383.269 45.9385 434.136C45.9385 485.003 55.9961 536.142 75.5676 583.2C95.139 630.259 123.953 673.509 159.834 709.415C195.715 745.321 238.935 774.427 285.961 793.74C332.987 813.325 384.09 823.39 434.921 823.39C485.753 823.39 536.856 813.325 583.882 793.74C630.908 774.155 674.128 745.321 710.009 709.415C721.154 698.263 731.483 686.566 741.269 674.053C745.618 680.582 749.967 686.838 754.588 692.822C745.618 703.975 735.832 714.856 725.775 724.92L724.959 725.192ZM744.803 520.909C738.007 492.619 734.473 463.242 734.473 434.136C734.473 405.03 730.124 375.925 721.969 347.907C718.979 338.115 715.717 328.322 711.64 319.074C710.552 316.626 709.737 314.449 708.65 312.001C704.572 302.481 699.68 293.232 694.515 284.256C681.195 261.406 665.158 240.189 646.402 221.42C618.675 193.675 585.241 171.369 548.816 156.137C512.392 141.176 473.249 133.287 433.834 133.287C394.419 133.287 355.276 141.176 318.852 156.137C282.427 171.097 249.264 193.403 221.266 221.42C193.54 249.166 170.978 282.624 156.028 319.074C141.078 355.524 133.195 394.694 133.195 434.136C133.195 473.578 140.806 512.748 156.028 549.198C170.978 585.648 193.268 618.834 221.266 646.852C248.992 674.597 282.427 696.903 318.852 712.135C355.276 727.096 394.419 734.985 433.834 734.985C473.249 734.985 512.392 727.368 548.816 712.135C585.241 697.175 618.404 674.869 646.402 646.852C665.158 628.083 681.467 606.866 694.515 584.016C696.418 589.457 698.592 594.897 700.767 600.337C702.126 603.329 703.485 606.594 704.844 609.586C692.612 628.627 678.205 646.58 662.167 662.629C632.267 692.55 596.386 716.488 557.515 732.537C518.644 748.857 476.239 757.018 434.106 757.018C391.701 757.018 349.568 748.585 310.697 732.537C271.554 716.488 235.945 692.278 206.044 662.629C176.143 632.707 152.222 597.073 136.185 557.903C119.875 519.005 111.72 476.57 111.72 434.408C111.72 392.246 120.147 349.811 136.185 310.913C152.222 271.743 176.415 236.109 206.044 206.187C235.945 176.266 271.554 152.328 310.697 136.28C349.568 119.959 391.973 111.798 434.106 111.798C476.239 111.798 518.644 120.231 557.515 136.28C596.658 152.328 632.267 176.538 662.167 206.187C678.205 222.236 692.612 240.189 704.844 259.23C709.737 266.847 714.63 275.007 718.979 283.168C723.872 292.144 728.221 301.665 732.027 311.185C732.027 311.185 732.027 311.185 732.027 311.457C736.92 323.426 741.269 335.667 744.531 347.907C752.414 376.197 756.219 405.302 756.219 434.68C756.219 464.058 760.025 493.163 767.364 521.453C770.626 533.966 774.431 546.206 779.052 558.447C780.14 561.167 781.227 563.887 782.314 566.607C785.305 573.408 788.295 580.208 791.557 587.009C795.634 595.441 799.983 603.601 804.876 611.49C809.225 618.834 813.846 626.179 819.011 632.979C830.428 649.3 843.203 664.533 857.338 678.406C889.142 710.231 927.469 736.073 969.059 753.21C1010.65 770.619 1056.04 779.323 1101.17 779.323C1146.29 779.323 1191.41 770.347 1233 753.21C1274.59 735.801 1312.92 710.231 1344.72 678.406C1376.53 646.58 1402.35 608.226 1419.47 566.607C1436.87 524.989 1445.57 479.563 1445.57 434.408C1445.57 389.254 1436.6 344.099 1419.47 302.481C1402.08 260.862 1376.53 222.508 1344.72 190.683C1312.92 158.857 1274.59 133.015 1233 115.878C1191.41 98.4695 1146.02 89.765 1101.17 89.765C1056.04 89.765 1010.92 98.7415 969.059 115.878C927.469 133.287 889.142 158.857 857.338 190.683C843.203 204.827 830.428 220.06 819.011 236.109C815.205 228.765 811.4 221.692 807.322 214.62C817.924 200.475 829.34 187.418 841.572 174.906C875.551 140.904 916.053 113.702 960.632 95.2053C1004.94 76.7082 1053.05 67.1878 1101.17 67.1878C1149.01 67.1878 1197.12 76.7082 1241.7 95.2053C1286.01 113.702 1326.78 140.904 1360.76 174.906C1394.74 208.908 1421.92 249.438 1440.4 294.048C1458.89 338.387 1468.4 386.533 1468.4 434.68C1468.4 482.555 1458.89 530.701 1440.4 575.312C1421.92 619.65 1394.74 660.453 1360.76 694.454C1326.78 728.456 1286.28 755.658 1241.7 774.155C1197.39 792.652 1149.28 802.172 1101.17 802.172C1053.05 802.172 1005.21 792.652 960.632 774.155C916.325 755.658 875.551 728.456 841.572 694.454C829.068 681.942 817.652 668.885 807.322 654.74C802.43 648.212 797.809 641.412 793.188 634.611C788.566 627.267 783.945 619.922 779.868 612.578C775.247 604.417 771.17 596.257 767.364 587.552C765.461 583.472 763.83 579.392 761.928 575.312C759.753 569.872 757.578 564.159 755.404 558.447C751.055 546.206 747.249 533.966 744.259 521.453L744.803 520.909ZM790.741 347.363C797.537 375.653 801.07 405.03 801.07 434.136C801.07 463.242 805.42 492.347 813.574 520.365C816.565 530.157 819.826 539.95 823.904 549.47C824.991 551.919 825.807 554.095 826.894 556.543C830.971 566.063 835.864 575.312 841.029 584.288C854.348 607.138 870.386 628.355 889.142 647.124C916.868 674.869 950.303 697.175 986.727 712.407C1023.15 727.368 1062.29 735.257 1101.71 735.257C1141.12 735.257 1180.27 727.64 1216.69 712.407C1253.12 697.447 1286.28 675.141 1314.28 647.124C1342 619.378 1364.29 585.92 1379.52 549.47C1394.47 513.02 1402.35 473.85 1402.35 434.408C1402.35 394.966 1394.74 355.796 1379.52 319.346C1364.57 282.896 1342.28 249.71 1314.28 221.692C1286.55 193.947 1253.12 171.641 1216.69 156.409C1180.27 141.448 1141.12 133.559 1101.71 133.559C1062.29 133.559 1023.15 141.448 986.727 156.409C950.303 171.369 917.14 193.675 889.142 221.692C870.386 240.461 854.076 261.678 841.029 284.528C839.126 279.087 836.951 273.647 834.777 268.207C833.418 265.215 832.059 261.951 830.699 258.958C842.932 239.917 857.338 221.964 873.376 205.915C903.277 175.994 938.886 152.056 978.029 136.008C1016.9 119.687 1059.3 111.526 1101.44 111.526C1143.57 111.526 1185.98 119.959 1224.85 136.008C1263.99 152.056 1299.6 176.266 1329.5 205.915C1359.4 235.837 1383.32 271.743 1399.36 310.641C1415.67 349.811 1423.82 391.974 1423.82 434.136C1423.82 476.57 1415.4 518.733 1399.36 557.631C1383.32 596.801 1359.13 632.435 1329.5 662.357C1299.6 692.278 1263.72 716.216 1224.85 732.264C1185.98 748.585 1143.57 756.746 1101.44 756.746C1059.03 756.746 1016.9 748.313 978.029 732.264C938.886 716.216 903.277 692.006 873.376 662.357C857.338 646.308 842.932 628.355 830.699 609.314C825.535 601.697 820.914 593.537 816.565 585.376C811.672 576.4 807.322 566.879 803.517 557.359C803.517 557.359 803.517 557.359 803.517 557.087C798.624 545.118 794.275 532.877 791.013 520.637C783.13 492.347 779.324 463.242 779.324 433.864C779.324 404.486 775.519 375.381 768.18 347.091C764.918 334.579 761.112 322.338 756.219 310.097C755.132 307.377 754.045 304.657 752.957 301.937C749.967 295.136 746.977 288.336 743.715 281.536C739.638 273.103 735.289 264.943 730.396 257.054C726.047 249.71 721.426 242.365 716.261 235.565C704.844 219.244 692.068 204.011 677.933 190.139C646.13 158.313 607.802 132.471 566.213 115.334C524.624 97.9254 479.229 89.221 434.378 89.221C389.254 89.221 344.131 98.1974 302.27 115.334C260.681 132.743 222.353 158.313 190.55 190.139C158.746 221.964 132.923 260.318 115.798 301.937C98.4009 343.555 89.7025 388.982 89.7025 433.864C89.7025 479.018 98.6727 524.173 115.798 566.063C133.195 607.682 158.746 646.036 190.55 677.862C222.353 709.687 260.681 735.529 302.27 752.666C343.86 770.075 389.254 778.779 434.378 778.779C479.501 778.779 524.624 769.803 566.213 752.666C607.802 735.257 646.13 709.687 677.933 677.862C692.068 663.717 704.844 648.484 716.261 632.435C720.066 639.779 723.872 646.852 727.949 653.924C717.348 668.069 705.931 681.126 693.699 693.638C659.721 727.64 619.219 754.842 574.64 773.339C530.332 791.836 482.219 801.356 434.106 801.356C385.993 801.356 338.151 791.836 293.572 773.339C249.264 754.842 208.49 727.64 174.512 693.638C140.534 659.636 113.351 619.106 94.8672 574.496C76.383 530.157 66.8691 482.011 66.8691 433.864C66.8691 385.989 76.383 337.843 94.8672 293.232C113.351 248.894 140.534 208.092 174.512 174.09C208.49 140.088 248.992 112.886 293.572 94.3893C337.879 75.8922 385.993 66.3717 434.106 66.3717C481.947 66.3717 530.06 75.8922 574.64 94.3893C618.947 112.886 659.721 140.088 693.699 174.09C705.931 186.602 717.62 199.659 727.949 213.804C732.842 220.332 737.463 227.133 742.084 233.933C746.705 241.277 751.326 248.622 755.404 255.966C760.025 264.127 764.102 272.287 767.908 280.992C769.81 285.072 771.441 289.152 773.344 293.232C775.519 298.673 777.693 304.385 779.868 310.097C784.217 322.338 788.023 334.579 791.013 347.091L790.741 347.363ZM867.396 434.136C867.396 403.126 873.376 372.933 885.065 344.643C896.753 316.354 914.15 290.512 935.896 268.751C957.642 246.99 983.737 229.581 1011.74 217.884C1040.01 206.187 1070.45 200.203 1101.17 200.203C1132.15 200.203 1162.33 206.187 1190.6 217.884C1218.87 229.581 1244.69 246.99 1266.44 268.751C1288.18 290.512 1305.58 316.626 1317.27 344.643C1328.96 372.933 1334.94 403.398 1334.94 434.136C1334.94 465.146 1328.96 495.339 1317.27 523.629C1305.58 551.919 1288.18 577.76 1266.44 599.521C1244.69 621.282 1218.59 638.691 1190.6 650.388C1162.33 662.085 1131.88 668.069 1101.17 668.069C1070.18 668.069 1040.01 662.085 1011.74 650.388C983.466 638.691 957.642 621.282 935.896 599.521C914.15 577.76 896.753 551.647 885.065 523.629C873.376 495.339 867.396 464.874 867.396 434.136ZM1504.83 514.38C1499.66 540.766 1491.78 566.879 1481.45 591.633C1460.79 641.411 1430.35 687.11 1392.29 725.192C1354.24 763.274 1308.84 793.74 1258.82 814.413C1233.82 824.75 1207.99 832.638 1181.63 837.806C1155.26 842.975 1128.35 845.695 1101.44 845.695C1074.53 845.695 1047.62 842.975 1021.25 837.806C994.882 832.638 968.787 824.75 944.051 814.413C894.307 793.74 848.64 763.274 810.584 725.192C800.527 715.128 790.741 704.247 781.771 693.094C776.878 687.11 772.257 680.854 767.636 674.597C763.015 668.069 758.666 661.541 754.316 655.012C749.967 648.212 745.618 641.139 741.812 633.795C737.735 626.179 733.658 618.562 730.124 610.946C727.134 604.689 724.144 598.161 721.425 591.633C720.61 589.729 719.795 587.553 718.979 585.648C715.174 575.856 711.64 566.063 708.65 556.271C704.844 544.03 701.582 531.789 699.136 519.277C698.864 517.645 698.32 516.013 698.048 514.38C692.884 487.995 690.166 461.066 690.166 434.136C690.166 405.574 685.273 377.285 676.031 350.355C674.4 345.459 672.497 340.835 670.594 335.939C657.818 304.929 638.791 276.639 615.142 252.702C591.493 229.037 562.951 209.996 531.963 197.211C500.975 184.426 467.812 177.898 433.834 177.626C400.128 177.626 366.693 184.154 335.705 197.211C304.717 209.996 276.447 229.037 252.526 252.702C228.877 276.367 209.849 304.929 197.074 335.939C184.298 366.948 177.774 400.134 177.502 434.136C177.502 467.866 184.026 501.324 197.074 532.333C209.849 563.343 228.877 591.633 252.526 615.57C276.175 639.235 304.717 658.276 335.705 671.061C366.693 683.846 399.856 690.374 433.834 690.646C467.54 690.646 500.975 684.118 531.963 671.061C562.951 658.276 591.221 639.235 615.142 615.57C638.791 591.905 657.818 563.343 670.594 532.333C672.497 527.709 674.4 522.813 676.031 517.917C676.031 517.917 676.031 518.461 676.031 518.733C678.477 530.701 681.195 542.67 684.729 554.639C671.138 582.928 652.654 609.042 630.636 631.075C604.812 656.916 574.096 677.59 540.39 691.462C506.683 705.335 470.53 712.679 433.834 712.679C397.137 712.679 360.985 705.607 327.278 691.462C293.572 677.59 262.855 656.916 237.032 631.075C211.209 605.233 190.55 574.224 176.687 540.766C162.824 507.036 155.484 470.858 155.484 434.136C155.484 397.414 162.552 361.236 176.687 327.506C190.55 293.776 211.209 263.039 237.032 237.197C262.855 211.356 293.844 190.683 327.278 176.81C360.985 162.937 397.137 155.593 433.834 155.593C470.53 155.593 506.683 162.665 540.39 176.81C574.096 190.683 604.812 211.356 630.636 237.197C652.925 259.502 671.41 285.344 684.729 313.633C686.904 318.258 689.078 322.882 690.981 327.506C693.971 334.578 696.417 341.651 698.864 348.995C707.562 376.469 712.183 405.302 712.183 434.136C712.183 462.97 715.445 492.075 721.697 520.365C724.416 532.878 727.949 545.39 732.027 557.359C735.017 566.063 738.279 574.768 741.541 583.2C742.084 584.288 742.356 585.376 742.9 586.737C746.433 595.169 750.511 603.601 754.588 612.034C758.394 619.65 762.743 627.267 767.092 634.611C771.17 641.684 775.791 648.484 780.412 655.284C784.761 661.813 789.654 668.069 794.547 674.325C804.332 686.838 814.662 698.535 825.807 709.687C861.688 745.593 904.908 774.699 951.934 794.012C998.96 813.597 1050.06 823.662 1100.89 823.662C1151.73 823.662 1202.83 813.597 1249.85 794.012C1296.88 774.427 1340.1 745.593 1375.98 709.687C1411.86 673.781 1440.95 630.531 1460.25 583.472C1479.82 536.414 1489.88 485.275 1489.88 434.408C1489.88 383.541 1479.82 332.402 1460.25 285.344C1440.68 238.285 1411.86 195.035 1375.98 159.129C1340.1 123.223 1296.88 94.1172 1249.85 74.8041C1202.83 55.2191 1151.73 45.1545 1100.89 45.1545C1050.06 45.1545 998.96 55.2191 951.934 74.8041C904.908 94.3892 861.688 123.223 825.807 159.129C814.662 170.281 804.332 181.978 794.547 194.491C790.197 187.962 785.848 181.706 781.227 175.722C790.197 164.569 799.983 153.689 810.041 143.624C848.096 105.542 893.491 75.0761 943.507 54.403C968.515 44.0664 994.339 36.178 1020.71 31.0097C1047.07 25.8415 1073.98 23.1213 1100.89 23.1213C1127.81 23.1213 1154.72 25.8415 1181.08 31.0097C1207.45 36.178 1233.55 44.0664 1258.28 54.403C1308.03 75.0761 1353.69 105.542 1391.75 143.624C1429.8 181.706 1460.25 227.133 1480.91 277.183C1491.24 302.209 1499.12 328.05 1504.28 354.436C1509.45 380.821 1512.17 407.751 1512.17 434.68C1512.17 461.61 1509.45 488.539 1504.28 514.925L1504.83 514.38ZM667.876 434.136C667.876 465.146 661.896 495.339 650.207 523.629C638.519 551.919 621.122 577.76 599.376 599.521C577.63 621.282 551.534 638.691 523.536 650.388C495.267 662.085 464.822 668.069 434.106 668.069C403.118 668.069 372.945 662.085 344.675 650.388C316.405 638.691 290.582 621.282 268.836 599.521C247.09 577.76 229.693 551.647 218.004 523.629C206.316 495.339 200.336 464.874 200.336 434.136C200.336 403.126 206.316 372.933 218.004 344.643C229.693 316.354 247.09 290.512 268.836 268.751C290.582 246.99 316.677 229.581 344.675 217.884C372.945 206.187 403.389 200.203 434.106 200.203C465.094 200.203 495.267 206.187 523.536 217.884C551.806 229.581 577.63 246.99 599.376 268.751C621.122 290.512 638.519 316.626 650.207 344.643C661.896 372.933 667.876 403.398 667.876 434.136Z" fill="url(#paint0_linear_28_115)" fill-opacity="0.06"/>
<defs>
<linearGradient id="paint0_linear_28_115" x1="233.5" y1="434" x2="1309" y2="434" gradientUnits="userSpaceOnUse">
<stop stop-color="#B092A9"/>
<stop offset="1" stop-color="#36442E"/>
</linearGradient>
</defs>
</svg>
