<svg width="1206" height="868" viewBox="0 0 1206 868" fill="none" xmlns="http://www.w3.org/2000/svg">
<path d="M1197.57 349.539C1192.14 321.522 1183.71 294.32 1172.84 267.935C1151.09 215.436 1119.02 167.289 1078.79 127.303C1038.83 87.3169 990.714 54.9471 938.252 33.1859C911.884 22.3053 884.702 14.1448 856.704 8.43248C828.978 2.99218 800.436 0.272015 772.166 0C743.896 0 715.626 2.72017 687.628 8.43248C659.902 13.8728 632.448 22.3053 606.081 33.1859C553.618 54.9471 505.505 87.0449 465.547 127.303C456.033 136.824 447.062 146.888 438.364 157.225C429.666 146.888 420.695 136.824 411.181 127.303C371.223 87.3169 323.11 54.9471 270.648 33.1859C244.281 22.3053 217.098 14.1448 189.1 8.43248C161.374 2.99218 132.832 0.272015 104.562 0C76.2922 0 48.0223 2.72017 20.0243 8.43248C-7.70195 13.8728 -35.1564 22.3053 -61.5235 33.1859C-113.986 54.9471 -162.099 87.0449 -202.057 127.303C-242.016 167.289 -274.363 215.436 -296.109 267.935C-306.982 294.32 -315.409 321.522 -320.845 349.539C-326.282 377.285 -329 405.846 -329 434.136C-329 462.426 -326.282 490.715 -320.845 518.733C-315.409 546.75 -306.982 573.952 -296.109 600.337C-274.363 652.836 -242.288 700.983 -202.057 740.969C-162.099 780.955 -113.986 813.325 -61.5235 835.086C-35.1564 845.967 -7.97377 854.127 20.0243 859.84C48.0223 865.28 76.2922 868 104.562 868C132.832 868 161.102 865.28 189.1 859.84C217.098 854.399 244.281 845.967 270.648 835.086C323.11 813.325 371.223 781.227 411.181 740.969C420.695 731.448 429.666 721.384 438.364 711.047C447.062 721.384 456.033 731.448 465.547 740.969C505.505 780.955 553.618 813.325 606.081 835.086C632.448 845.967 659.63 854.127 687.628 859.84C715.626 865.28 743.896 868 772.166 868C800.436 868 828.706 865.28 856.704 859.84C884.702 854.399 911.884 845.967 938.252 835.086C990.714 813.325 1038.83 781.227 1078.79 740.969C1118.74 700.983 1151.09 652.836 1172.84 600.337C1183.71 573.952 1192.14 546.75 1197.57 518.733C1203.01 490.715 1205.73 462.426 1206 434.136C1206 405.846 1203.28 377.557 1197.57 349.539ZM395.959 725.192C357.904 763.274 312.509 793.74 262.493 814.413C237.485 824.75 211.661 832.638 185.294 837.806C158.927 842.975 132.016 845.695 105.106 845.695C78.195 845.695 51.2842 842.975 24.9171 837.806C-1.44999 832.638 -27.5452 824.75 -52.2814 814.413C-102.025 793.74 -147.692 763.274 -185.748 725.192C-223.803 687.11 -254.248 641.683 -274.907 591.633C-285.236 566.607 -293.119 540.766 -298.284 514.38C-303.448 487.995 -306.167 461.066 -306.167 434.136C-306.167 407.207 -303.448 380.277 -298.284 353.892C-293.119 327.506 -285.236 301.393 -274.907 276.639C-254.248 226.861 -223.803 181.162 -185.748 143.08C-147.692 104.998 -102.297 74.5322 -52.2814 53.859C-27.2734 43.5225 -1.44999 35.634 24.9171 30.4657C51.2842 25.2974 78.195 22.5773 105.106 22.5773C132.016 22.5773 158.927 25.2974 185.294 30.4657C211.661 35.634 237.757 43.5225 262.493 53.859C312.237 74.5322 357.904 104.998 395.959 143.08C406.017 153.144 415.803 164.025 424.773 175.178C429.666 181.162 434.287 187.418 438.908 193.675C443.529 200.203 447.878 206.731 452.227 213.26C456.576 220.06 460.926 227.133 464.731 234.477C468.809 242.093 472.886 249.71 476.42 257.326C479.41 263.583 482.4 270.111 485.118 276.639C485.934 278.543 486.749 280.72 487.565 282.624C491.37 292.144 494.904 301.937 497.894 312.001C501.699 324.242 504.961 336.483 507.408 348.995C507.68 350.627 507.951 352.26 508.495 353.892C513.66 380.277 516.378 407.207 516.378 434.136C516.378 462.698 520.999 490.987 530.513 517.917C532.144 522.813 534.047 527.437 535.949 532.333C548.725 563.343 567.753 591.633 591.402 615.57C615.051 639.235 643.592 658.276 674.581 671.061C705.569 683.846 738.731 690.374 772.71 690.646C806.416 690.646 839.851 684.118 870.839 671.061C901.827 658.276 930.097 639.235 954.018 615.57C977.666 591.905 996.694 563.343 1009.47 532.333C1022.25 501.324 1028.77 468.138 1029.04 434.136C1029.04 400.406 1022.52 366.948 1009.47 335.939C996.694 304.929 977.666 276.639 954.018 252.702C930.369 229.037 901.827 209.996 870.839 197.211C839.851 184.426 806.688 177.898 772.71 177.626C739.003 177.626 705.569 184.154 674.581 197.211C643.592 209.996 615.323 229.037 591.402 252.702C567.753 276.367 548.725 304.929 535.949 335.939C534.047 340.563 532.144 345.459 530.513 350.355C530.513 350.355 530.513 349.811 530.513 349.539C528.067 337.571 525.348 325.602 521.815 313.633C535.406 285.344 553.89 259.23 575.908 237.197C601.731 211.356 632.719 190.683 666.154 176.81C699.86 162.937 736.013 155.593 772.71 155.593C809.406 155.593 845.559 162.665 879.265 176.81C912.972 190.683 943.688 211.356 969.512 237.197C995.335 263.039 1015.99 293.776 1029.86 327.506C1043.72 361.236 1051.06 397.414 1051.06 434.136C1051.06 470.858 1043.99 507.036 1029.86 540.766C1015.99 574.496 995.335 605.233 969.512 631.075C943.688 656.916 912.972 677.59 879.265 691.462C845.559 705.335 809.406 712.679 772.71 712.679C736.013 712.679 699.86 705.607 666.154 691.462C632.448 677.59 601.731 656.916 575.908 631.075C553.618 608.77 535.406 582.928 521.815 554.639C521.271 553.551 520.727 552.191 520.184 551.103C519.64 550.286 519.368 549.198 519.096 548.382C518.009 545.934 516.922 543.486 515.834 540.766C514.203 536.686 512.572 532.333 510.942 527.981C510.67 526.893 510.126 525.805 509.854 524.989C509.582 523.901 509.039 522.813 508.767 521.725C508.767 520.909 508.223 520.365 507.951 519.549C499.253 492.075 494.632 463.242 494.632 434.408C494.632 405.574 491.37 376.469 485.118 348.451C482.4 335.939 478.866 323.426 474.789 311.185C471.799 302.481 468.537 293.776 465.275 285.344C464.731 284.256 464.459 283.168 463.916 281.808C460.382 273.375 456.305 264.943 452.227 256.51C448.422 248.894 444.072 241.277 439.723 233.933C435.646 226.861 431.025 220.06 426.404 213.26C422.055 206.731 417.162 200.475 412.269 194.219C402.483 181.706 392.154 170.009 381.009 158.857C345.128 122.951 301.908 93.8452 254.882 74.5321C207.856 54.947 156.753 44.8825 105.921 44.8825C55.0898 44.8825 3.98655 54.947 -43.0393 74.5321C-90.0652 94.1172 -133.285 122.951 -169.166 158.857C-205.047 194.763 -234.133 238.013 -253.432 285.072C-273.004 332.13 -283.061 383.269 -283.061 434.136C-283.061 485.003 -273.004 536.142 -253.432 583.2C-233.861 630.259 -205.047 673.509 -169.166 709.415C-133.285 745.321 -90.0652 774.427 -43.0393 793.74C3.98655 813.325 55.0898 823.389 105.921 823.389C156.753 823.389 207.856 813.325 254.882 793.74C301.908 774.155 345.128 745.321 381.009 709.415C392.154 698.263 402.483 686.566 412.269 674.053C416.618 680.582 420.967 686.838 425.588 692.822C416.618 703.975 406.832 714.856 396.775 724.92L395.959 725.192ZM415.803 520.909C409.007 492.619 405.473 463.242 405.473 434.136C405.473 405.03 401.124 375.925 392.969 347.907C389.979 338.115 386.717 328.322 382.64 319.074C381.552 316.626 380.737 314.449 379.65 312.001C375.572 302.481 370.68 293.232 365.515 284.256C352.195 261.406 336.158 240.189 317.402 221.42C289.675 193.675 256.241 171.369 219.816 156.137C183.392 141.176 144.249 133.287 104.834 133.287C65.4192 133.287 26.2763 141.176 -10.1484 156.137C-46.573 171.097 -79.7358 193.403 -107.734 221.42C-135.46 249.166 -158.022 282.624 -172.972 319.074C-187.922 355.524 -195.805 394.694 -195.805 434.136C-195.805 473.578 -188.194 512.748 -172.972 549.198C-158.022 585.648 -135.732 618.834 -107.734 646.852C-80.0076 674.597 -46.573 696.903 -10.1484 712.135C26.2763 727.096 65.4192 734.985 104.834 734.985C144.249 734.985 183.392 727.368 219.816 712.135C256.241 697.175 289.404 674.869 317.402 646.852C336.158 628.083 352.467 606.866 365.515 584.016C367.418 589.457 369.592 594.897 371.767 600.337C373.126 603.329 374.485 606.594 375.844 609.586C363.612 628.627 349.205 646.58 333.167 662.629C303.267 692.55 267.386 716.488 228.515 732.537C189.644 748.857 147.239 757.018 105.106 757.018C62.7009 757.018 20.5679 748.585 -18.3032 732.537C-57.4461 716.488 -93.0552 692.278 -122.956 662.629C-152.857 632.707 -176.778 597.073 -192.815 557.903C-209.125 519.005 -217.28 476.57 -217.28 434.408C-217.28 392.246 -208.853 349.811 -192.815 310.913C-176.778 271.743 -152.585 236.109 -122.956 206.187C-93.0552 176.266 -57.4461 152.328 -18.3032 136.28C20.5679 119.959 62.9727 111.798 105.106 111.798C147.239 111.798 189.644 120.231 228.515 136.28C267.658 152.328 303.267 176.538 333.167 206.187C349.205 222.236 363.612 240.189 375.844 259.23C380.737 266.847 385.63 275.007 389.979 283.168C394.872 292.144 399.221 301.665 403.027 311.185C403.027 311.185 403.027 311.185 403.027 311.457C407.92 323.426 412.269 335.667 415.531 347.907C423.414 376.197 427.219 405.302 427.219 434.68C427.219 464.058 431.025 493.163 438.364 521.453C441.626 533.966 445.431 546.206 450.053 558.447C451.14 561.167 452.227 563.887 453.314 566.607C456.305 573.408 459.295 580.208 462.557 587.009C466.634 595.441 470.983 603.601 475.876 611.49C480.225 618.834 484.846 626.179 490.011 632.979C501.428 649.3 514.203 664.533 528.338 678.406C560.142 710.231 598.469 736.073 640.059 753.21C681.648 770.619 727.043 779.323 772.166 779.323C817.289 779.323 862.412 770.347 904.002 753.21C945.591 735.801 983.918 710.231 1015.72 678.406C1047.53 646.58 1073.35 608.226 1090.47 566.607C1107.87 524.989 1116.57 479.563 1116.57 434.408C1116.57 389.254 1107.6 344.099 1090.47 302.481C1073.08 260.862 1047.53 222.508 1015.72 190.683C983.918 158.857 945.591 133.015 904.002 115.878C862.412 98.4695 817.017 89.765 772.166 89.765C727.043 89.765 681.92 98.7415 640.059 115.878C598.469 133.287 560.142 158.857 528.338 190.683C514.203 204.827 501.428 220.06 490.011 236.109C486.205 228.765 482.4 221.692 478.322 214.62C488.924 200.475 500.34 187.418 512.572 174.906C546.551 140.904 587.053 113.702 631.632 95.2053C675.94 76.7082 724.053 67.1877 772.166 67.1877C820.007 67.1877 868.121 76.7082 912.7 95.2053C957.008 113.702 997.781 140.904 1031.76 174.906C1065.74 208.908 1092.92 249.438 1111.4 294.048C1129.89 338.387 1139.4 386.533 1139.4 434.68C1139.4 482.555 1129.89 530.701 1111.4 575.312C1092.92 619.65 1065.74 660.453 1031.76 694.454C997.781 728.456 957.279 755.658 912.7 774.155C868.392 792.652 820.279 802.172 772.166 802.172C724.053 802.172 676.212 792.652 631.632 774.155C587.325 755.658 546.551 728.456 512.572 694.454C500.068 681.942 488.652 668.885 478.322 654.74C473.43 648.212 468.809 641.412 464.187 634.611C459.566 627.267 454.945 619.922 450.868 612.578C446.247 604.417 442.17 596.257 438.364 587.553C436.461 583.472 434.83 579.392 432.928 575.312C430.753 569.872 428.578 564.159 426.404 558.447C422.055 546.206 418.249 533.966 415.259 521.453L415.803 520.909ZM461.741 347.363C468.537 375.653 472.07 405.03 472.07 434.136C472.07 463.242 476.42 492.347 484.574 520.365C487.564 530.157 490.826 539.95 494.904 549.47C495.991 551.919 496.807 554.095 497.894 556.543C501.971 566.063 506.864 575.312 512.029 584.288C525.348 607.138 541.386 628.355 560.142 647.124C587.868 674.869 621.303 697.175 657.727 712.407C694.152 727.368 733.295 735.257 772.71 735.257C812.124 735.257 851.267 727.64 887.692 712.407C924.117 697.447 957.279 675.141 985.277 647.124C1013 619.378 1035.29 585.92 1050.52 549.47C1065.47 513.02 1073.35 473.85 1073.35 434.408C1073.35 394.966 1065.74 355.796 1050.52 319.346C1035.57 282.896 1013.28 249.71 985.277 221.692C957.551 193.947 924.117 171.641 887.692 156.409C851.267 141.448 812.124 133.559 772.71 133.559C733.295 133.559 694.152 141.448 657.727 156.409C621.303 171.369 588.14 193.675 560.142 221.692C541.386 240.461 525.076 261.678 512.029 284.528C510.126 279.087 507.951 273.647 505.777 268.207C504.418 265.215 503.059 261.951 501.699 258.958C513.932 239.917 528.338 221.964 544.376 205.915C574.277 175.994 609.886 152.056 649.029 136.008C687.9 119.687 730.305 111.526 772.438 111.526C814.571 111.526 856.976 119.959 895.847 136.008C934.99 152.056 970.599 176.266 1000.5 205.915C1030.4 235.837 1054.32 271.743 1070.36 310.641C1086.67 349.811 1094.82 391.974 1094.82 434.136C1094.82 476.57 1086.4 518.733 1070.36 557.631C1054.32 596.801 1030.13 632.435 1000.5 662.357C970.599 692.278 934.718 716.216 895.847 732.264C856.976 748.585 814.571 756.746 772.438 756.746C730.033 756.746 687.9 748.313 649.029 732.264C609.886 716.216 574.277 692.006 544.376 662.357C528.338 646.308 513.932 628.355 501.699 609.314C496.535 601.697 491.914 593.537 487.565 585.376C482.672 576.4 478.322 566.879 474.517 557.359C474.517 557.359 474.517 557.359 474.517 557.087C469.624 545.118 465.275 532.877 462.013 520.637C454.13 492.347 450.324 463.242 450.324 433.864C450.324 404.486 446.519 375.381 439.179 347.091C435.918 334.579 432.112 322.338 427.219 310.097C426.132 307.377 425.045 304.657 423.957 301.937C420.967 295.136 417.977 288.336 414.715 281.536C410.638 273.103 406.289 264.943 401.396 257.054C397.047 249.71 392.426 242.365 387.261 235.565C375.844 219.244 363.068 204.011 348.933 190.139C317.13 158.313 278.802 132.471 237.213 115.334C195.624 97.9254 150.229 89.221 105.378 89.221C60.2545 89.221 15.1314 98.1974 -26.7298 115.334C-68.3191 132.743 -106.647 158.313 -138.45 190.139C-170.254 221.964 -196.077 260.318 -213.202 301.937C-230.599 343.555 -239.298 388.982 -239.298 433.864C-239.298 479.018 -230.327 524.173 -213.202 566.063C-195.805 607.682 -170.254 646.036 -138.45 677.862C-106.647 709.687 -68.3191 735.529 -26.7298 752.666C14.8596 770.075 60.2545 778.779 105.378 778.779C150.501 778.779 195.624 769.803 237.213 752.666C278.802 735.257 317.13 709.687 348.933 677.862C363.068 663.717 375.844 648.484 387.261 632.435C391.066 639.779 394.872 646.852 398.949 653.924C388.348 668.069 376.931 681.126 364.699 693.638C330.721 727.64 290.219 754.842 245.64 773.339C201.332 791.836 153.219 801.356 105.106 801.356C56.9925 801.356 9.15122 791.836 -35.4282 773.339C-79.7358 754.842 -120.51 727.64 -154.488 693.638C-188.466 659.636 -215.649 619.106 -234.133 574.496C-252.617 530.157 -262.131 482.011 -262.131 433.864C-262.131 385.989 -252.617 337.843 -234.133 293.232C-215.649 248.894 -188.466 208.092 -154.488 174.09C-120.51 140.088 -80.0076 112.886 -35.4282 94.3893C8.8794 75.8922 56.9925 66.3717 105.106 66.3717C152.947 66.3717 201.06 75.8922 245.64 94.3893C289.947 112.886 330.721 140.088 364.699 174.09C376.931 186.602 388.62 199.659 398.949 213.804C403.842 220.332 408.463 227.133 413.084 233.933C417.705 241.277 422.326 248.622 426.404 255.966C431.025 264.127 435.102 272.287 438.908 280.992C440.811 285.072 442.441 289.152 444.344 293.232C446.519 298.673 448.693 304.385 450.868 310.097C455.217 322.338 459.023 334.579 462.013 347.091L461.741 347.363ZM538.396 434.136C538.396 403.126 544.376 372.933 556.065 344.643C567.753 316.354 585.15 290.512 606.896 268.751C628.642 246.99 654.737 229.581 682.735 217.884C711.005 206.187 741.45 200.203 772.166 200.203C803.154 200.203 833.327 206.187 861.597 217.884C889.867 229.581 915.69 246.99 937.436 268.751C959.182 290.512 976.579 316.626 988.267 344.643C999.956 372.933 1005.94 403.398 1005.94 434.136C1005.94 465.146 999.956 495.339 988.267 523.629C976.579 551.919 959.182 577.76 937.436 599.521C915.69 621.282 889.595 638.691 861.597 650.388C833.327 662.085 802.882 668.069 772.166 668.069C741.178 668.069 711.005 662.085 682.735 650.388C654.465 638.691 628.642 621.282 606.896 599.521C585.15 577.76 567.753 551.647 556.065 523.629C544.376 495.339 538.396 464.874 538.396 434.136ZM1175.83 514.38C1170.66 540.766 1162.78 566.879 1152.45 591.633C1131.79 641.411 1101.35 687.11 1063.29 725.192C1025.24 763.274 979.841 793.74 929.825 814.413C904.817 824.75 878.994 832.638 852.626 837.806C826.259 842.975 799.349 845.695 772.438 845.695C745.527 845.695 718.616 842.975 692.249 837.806C665.882 832.638 639.787 824.75 615.051 814.413C565.307 793.74 519.64 763.274 481.584 725.192C471.527 715.128 461.741 704.247 452.771 693.094C447.878 687.11 443.257 680.854 438.636 674.597C434.015 668.069 429.666 661.541 425.316 655.012C420.967 648.212 416.618 641.139 412.812 633.795C408.735 626.179 404.658 618.562 401.124 610.946C398.134 604.689 395.144 598.161 392.426 591.633C391.61 589.729 390.795 587.553 389.979 585.648C386.174 575.856 382.64 566.063 379.65 556.271C375.844 544.03 372.582 531.789 370.136 519.277C369.864 517.645 369.32 516.013 369.048 514.38C363.884 487.995 361.166 461.066 361.166 434.136C361.166 405.574 356.273 377.285 347.031 350.355C345.4 345.459 343.497 340.835 341.594 335.939C328.818 304.929 309.791 276.639 286.142 252.702C262.493 229.037 233.951 209.996 202.963 197.211C171.975 184.426 138.812 177.898 104.834 177.626C71.1275 177.626 37.6929 184.154 6.70479 197.211C-24.2833 209.996 -52.5532 229.037 -76.4739 252.702C-100.123 276.367 -119.151 304.929 -131.926 335.939C-144.702 366.948 -151.226 400.134 -151.498 434.136C-151.498 467.866 -144.974 501.324 -131.926 532.333C-119.151 563.343 -100.123 591.633 -76.4739 615.57C-52.825 639.235 -24.2833 658.276 6.70479 671.061C37.6929 683.846 70.8557 690.374 104.834 690.646C138.54 690.646 171.975 684.118 202.963 671.061C233.951 658.276 262.221 639.235 286.142 615.57C309.791 591.905 328.818 563.343 341.594 532.333C343.497 527.709 345.4 522.813 347.031 517.917C347.031 517.917 347.031 518.461 347.031 518.733C349.477 530.701 352.195 542.67 355.729 554.639C342.138 582.928 323.654 609.042 301.636 631.075C275.812 656.916 245.096 677.59 211.39 691.462C177.683 705.335 141.53 712.679 104.834 712.679C68.1374 712.679 31.9846 705.607 -1.72178 691.462C-35.4282 677.59 -66.1445 656.916 -91.9679 631.075C-117.791 605.233 -138.45 574.224 -152.313 540.766C-166.176 507.036 -173.516 470.858 -173.516 434.136C-173.516 397.414 -166.448 361.236 -152.313 327.506C-138.45 293.776 -117.791 263.039 -91.9679 237.197C-66.1445 211.356 -35.1563 190.683 -1.72178 176.81C31.9846 162.937 68.1374 155.593 104.834 155.593C141.53 155.593 177.683 162.665 211.39 176.81C245.096 190.683 275.812 211.356 301.636 237.197C323.925 259.502 342.41 285.344 355.729 313.633C357.904 318.258 360.078 322.882 361.981 327.506C364.971 334.578 367.417 341.651 369.864 348.995C378.562 376.469 383.183 405.302 383.183 434.136C383.183 462.97 386.445 492.075 392.697 520.365C395.416 532.878 398.949 545.39 403.027 557.359C406.017 566.063 409.279 574.768 412.541 583.2C413.084 584.288 413.356 585.376 413.9 586.736C417.433 595.169 421.511 603.601 425.588 612.034C429.394 619.65 433.743 627.267 438.092 634.611C442.17 641.684 446.791 648.484 451.412 655.284C455.761 661.813 460.654 668.069 465.547 674.325C475.332 686.838 485.662 698.535 496.807 709.687C532.688 745.593 575.908 774.699 622.934 794.012C669.96 813.597 721.063 823.662 771.894 823.662C822.726 823.662 873.829 813.597 920.855 794.012C967.881 774.427 1011.1 745.593 1046.98 709.687C1082.86 673.781 1111.95 630.531 1131.25 583.472C1150.82 536.414 1160.88 485.275 1160.88 434.408C1160.88 383.541 1150.82 332.402 1131.25 285.344C1111.68 238.285 1082.86 195.035 1046.98 159.129C1011.1 123.223 967.881 94.1172 920.855 74.8041C873.829 55.2191 822.726 45.1545 771.894 45.1545C721.063 45.1545 669.96 55.2191 622.934 74.8041C575.908 94.3892 532.688 123.223 496.807 159.129C485.662 170.281 475.332 181.978 465.547 194.491C461.197 187.962 456.848 181.706 452.227 175.722C461.197 164.569 470.983 153.689 481.041 143.624C519.096 105.542 564.491 75.0762 614.507 54.403C639.515 44.0664 665.339 36.178 691.706 31.0097C718.073 25.8415 744.984 23.1213 771.894 23.1213C798.805 23.1213 825.716 25.8415 852.083 31.0097C878.45 36.178 904.545 44.0664 929.281 54.403C979.025 75.0762 1024.69 105.542 1062.75 143.624C1100.8 181.706 1131.25 227.133 1151.91 277.183C1162.24 302.209 1170.12 328.05 1175.28 354.436C1180.45 380.821 1183.17 407.751 1183.17 434.68C1183.17 461.61 1180.45 488.539 1175.28 514.925L1175.83 514.38ZM338.876 434.136C338.876 465.146 332.896 495.339 321.207 523.629C309.519 551.919 292.122 577.76 270.376 599.521C248.63 621.282 222.534 638.691 194.536 650.388C166.267 662.085 135.822 668.069 105.106 668.069C74.1176 668.069 43.9449 662.085 15.6751 650.388C-12.5948 638.691 -38.4183 621.282 -60.1643 599.521C-81.9104 577.76 -99.3072 551.647 -110.996 523.629C-122.684 495.339 -128.664 464.874 -128.664 434.136C-128.664 403.126 -122.684 372.933 -110.996 344.643C-99.3072 316.354 -81.9104 290.512 -60.1643 268.751C-38.4183 246.99 -12.323 229.581 15.6751 217.884C43.9449 206.187 74.3894 200.203 105.106 200.203C136.094 200.203 166.267 206.187 194.536 217.884C222.806 229.581 248.63 246.99 270.376 268.751C292.122 290.512 309.519 316.626 321.207 344.643C332.896 372.933 338.876 403.398 338.876 434.136Z" fill="url(#paint0_linear_28_115)" fill-opacity="0.1"/>
<defs>
<linearGradient id="paint0_linear_28_115" x1="-95.5" y1="434" x2="980" y2="434" gradientUnits="userSpaceOnUse">
<stop stop-color="#36442E"/>
<stop offset="1" stop-color="#B092A9"/>
</linearGradient>
</defs>
</svg>
